REM DIRINDEX 1\2\4\8,1\2\4\9,1\2\4\10,1\2\5\11,1\2\5\12,1\2\5\13,1\2\5\14,1\2\5\15,1\3\6\16,1\3\6\17,1\3\6\18,1\3\7\19,1\3\7\20,1\3\7\21,1\3\7\22,1\3\7\23
REM DIRNAME "folder01","folder02","folder03","folder04","folder05","folder06","folder07","folder08","folder09","folder10","folder11","folder12","folder13","folder14","folder15","folder16","folder17","folder18","folder19","folder20","folder21","folder22","folder23"
TITLE ""
FILE "LR_black_phrase_E_S09.mp3" MP3
  TRACK 01 AUDIO
    TITLE "0:"
    INDEX 01 00:00:00
  TRACK 02 AUDIO
    TITLE "16:cjc171_10881"
    INDEX 01 00:00:14
  TRACK 03 AUDIO
    TITLE "0:"
    INDEX 01 00:01:22
  TRACK 04 AUDIO
    TITLE "17:cjc171_10882"
    INDEX 01 00:01:49
  TRACK 05 AUDIO
    TITLE "0:"
    INDEX 01 00:03:22
  TRACK 06 AUDIO
    TITLE "18:cjc171_10883"
    INDEX 01 00:03:75
  TRACK 07 AUDIO
    TITLE "0:"
    INDEX 01 00:05:47
  TRACK 08 AUDIO
    TITLE "16:cjc171_10884"
    INDEX 01 00:06:46
  TRACK 09 AUDIO
    TITLE "0:"
    INDEX 01 00:07:71
  TRACK 10 AUDIO
    TITLE "17:cjc171_10885"
    INDEX 01 00:08:24
  TRACK 11 AUDIO
    TITLE "0:"
    INDEX 01 00:10:66
  TRACK 12 AUDIO
    TITLE "18:cjc171_10886"
    INDEX 01 00:11:45
  TRACK 13 AUDIO
    TITLE "0:"
    INDEX 01 00:14:10
  TRACK 14 AUDIO
    TITLE "16:cjc171_10887"
    INDEX 01 00:15:12
  TRACK 15 AUDIO
    TITLE "0:"
    INDEX 01 00:16:35
  TRACK 16 AUDIO
    TITLE "17:cjc171_10888"
    INDEX 01 00:16:60
  TRACK 17 AUDIO
    TITLE "0:"
    INDEX 01 00:18:69
  TRACK 18 AUDIO
    TITLE "18:cjc171_10889"
    INDEX 01 00:19:41
  TRACK 19 AUDIO
    TITLE "0:"
    INDEX 01 00:21:48
  TRACK 20 AUDIO
    TITLE "16:cjc171_10890"
    INDEX 01 00:22:41
  TRACK 21 AUDIO
    TITLE "0:"
    INDEX 01 00:23:49
  TRACK 22 AUDIO
    TITLE "17:cjc171_10891"
    INDEX 01 00:23:72
  TRACK 23 AUDIO
    TITLE "0:"
    INDEX 01 00:26:37
  TRACK 24 AUDIO
    TITLE "18:cjc171_10892"
    INDEX 01 00:27:07
  TRACK 25 AUDIO
    TITLE "0:"
    INDEX 01 00:29:49
  TRACK 26 AUDIO
    TITLE "16:cjc171_10893"
    INDEX 01 00:30:49
  TRACK 27 AUDIO
    TITLE "0:"
    INDEX 01 00:31:72
  TRACK 28 AUDIO
    TITLE "17:cjc171_10894"
    INDEX 01 00:32:26
  TRACK 29 AUDIO
    TITLE "0:"
    INDEX 01 00:35:09
  TRACK 30 AUDIO
    TITLE "18:cjc171_10895"
    INDEX 01 00:35:64
  TRACK 31 AUDIO
    TITLE "0:"
    INDEX 01 00:38:46
  TRACK 32 AUDIO
    TITLE "16:cjc171_10896"
    INDEX 01 00:39:51
  TRACK 33 AUDIO
    TITLE "0:"
    INDEX 01 00:40:65
  TRACK 34 AUDIO
    TITLE "17:cjc171_10897"
    INDEX 01 00:41:19
  TRACK 35 AUDIO
    TITLE "0:"
    INDEX 01 00:43:14
  TRACK 36 AUDIO
    TITLE "18:cjc171_10898"
    INDEX 01 00:43:69
  TRACK 37 AUDIO
    TITLE "0:"
    INDEX 01 00:45:64
  TRACK 38 AUDIO
    TITLE "16:cjc171_10899"
    INDEX 01 00:46:65
  TRACK 39 AUDIO
    TITLE "0:"
    INDEX 01 00:48:01
  TRACK 40 AUDIO
    TITLE "17:cjc171_10900"
    INDEX 01 00:48:23
  TRACK 41 AUDIO
    TITLE "0:"
    INDEX 01 00:50:22
  TRACK 42 AUDIO
    TITLE "18:cjc171_10901"
    INDEX 01 00:50:67
  TRACK 43 AUDIO
    TITLE "0:"
    INDEX 01 00:52:62
  TRACK 44 AUDIO
    TITLE "16:cjc171_10902"
    INDEX 01 00:53:61
  TRACK 45 AUDIO
    TITLE "0:"
    INDEX 01 00:54:75
  TRACK 46 AUDIO
    TITLE "17:cjc171_10903"
    INDEX 01 00:55:23
  TRACK 47 AUDIO
    TITLE "0:"
    INDEX 01 00:57:40
  TRACK 48 AUDIO
    TITLE "18:cjc171_10904"
    INDEX 01 00:58:10
  TRACK 49 AUDIO
    TITLE "0:"
    INDEX 01 01:00:26
  TRACK 50 AUDIO
    TITLE "16:cjc171_10905"
    INDEX 01 01:01:30
  TRACK 51 AUDIO
    TITLE "0:"
    INDEX 01 01:02:51
  TRACK 52 AUDIO
    TITLE "17:cjc171_10906"
    INDEX 01 01:03:05
  TRACK 53 AUDIO
    TITLE "0:"
    INDEX 01 01:05:45
  TRACK 54 AUDIO
    TITLE "18:cjc171_10907"
    INDEX 01 01:06:19
  TRACK 55 AUDIO
    TITLE "0:"
    INDEX 01 01:08:59
  TRACK 56 AUDIO
    TITLE "16:cjc171_10908"
    INDEX 01 01:09:60
  TRACK 57 AUDIO
    TITLE "0:"
    INDEX 01 01:10:72
  TRACK 58 AUDIO
    TITLE "17:cjc171_10909"
    INDEX 01 01:11:24
  TRACK 59 AUDIO
    TITLE "0:"
    INDEX 01 01:12:69
  TRACK 60 AUDIO
    TITLE "18:cjc171_10910"
    INDEX 01 01:13:46
  TRACK 61 AUDIO
    TITLE "0:"
    INDEX 01 01:15:16
  TRACK 62 AUDIO
    TITLE "16:cjc171_10911"
    INDEX 01 01:16:15
  TRACK 63 AUDIO
    TITLE "0:"
    INDEX 01 01:17:42
  TRACK 64 AUDIO
    TITLE "17:cjc171_10912"
    INDEX 01 01:17:64
  TRACK 65 AUDIO
    TITLE "0:"
    INDEX 01 01:20:27
  TRACK 66 AUDIO
    TITLE "18:cjc171_10913"
    INDEX 01 01:20:74
  TRACK 67 AUDIO
    TITLE "0:"
    INDEX 01 01:23:35
  TRACK 68 AUDIO
    TITLE "16:cjc171_10914"
    INDEX 01 01:24:37
  TRACK 69 AUDIO
    TITLE "0:"
    INDEX 01 01:25:50
  TRACK 70 AUDIO
    TITLE "17:cjc171_10915"
    INDEX 01 01:25:67
  TRACK 71 AUDIO
    TITLE "0:"
    INDEX 01 01:28:17
  TRACK 72 AUDIO
    TITLE "18:cjc171_10916"
    INDEX 01 01:28:62
  TRACK 73 AUDIO
    TITLE "0:"
    INDEX 01 01:31:13
  TRACK 74 AUDIO
    TITLE "16:cjc171_10917"
    INDEX 01 01:32:12
  TRACK 75 AUDIO
    TITLE "0:"
    INDEX 01 01:33:18
  TRACK 76 AUDIO
    TITLE "17:cjc171_10918"
    INDEX 01 01:33:49
  TRACK 77 AUDIO
    TITLE "0:"
    INDEX 01 01:35:46
  TRACK 78 AUDIO
    TITLE "18:cjc171_10919"
    INDEX 01 01:36:24
  TRACK 79 AUDIO
    TITLE "0:"
    INDEX 01 01:38:21
  TRACK 80 AUDIO
    TITLE "16:cjc171_10920"
    INDEX 01 01:39:24
  TRACK 81 AUDIO
    TITLE "0:"
    INDEX 01 01:40:32
  TRACK 82 AUDIO
    TITLE "17:cjc171_10921"
    INDEX 01 01:40:63
  TRACK 83 AUDIO
    TITLE "0:"
    INDEX 01 01:42:44
  TRACK 84 AUDIO
    TITLE "18:cjc171_10922"
    INDEX 01 01:43:26
  TRACK 85 AUDIO
    TITLE "0:"
    INDEX 01 01:45:07
  TRACK 86 AUDIO
    TITLE "16:cjc171_10923"
    INDEX 01 01:46:07
  TRACK 87 AUDIO
    TITLE "0:"
    INDEX 01 01:47:08
  TRACK 88 AUDIO
    TITLE "17:cjc171_10924"
    INDEX 01 01:47:32
  TRACK 89 AUDIO
    TITLE "0:"
    INDEX 01 01:50:18
  TRACK 90 AUDIO
    TITLE "18:cjc171_10925"
    INDEX 01 01:50:61
  TRACK 91 AUDIO
    TITLE "0:"
    INDEX 01 01:53:48
  TRACK 92 AUDIO
    TITLE "16:cjc171_10926"
    INDEX 01 01:54:42
  TRACK 93 AUDIO
    TITLE "0:"
    INDEX 01 01:55:63
  TRACK 94 AUDIO
    TITLE "17:cjc171_10927"
    INDEX 01 01:56:13
  TRACK 95 AUDIO
    TITLE "0:"
    INDEX 01 01:58:02
  TRACK 96 AUDIO
    TITLE "18:cjc171_10928"
    INDEX 01 01:58:47
  TRACK 97 AUDIO
    TITLE "0:"
    INDEX 01 02:00:40
  TRACK 98 AUDIO
    TITLE "16:cjc171_10929"
    INDEX 01 02:01:40
  TRACK 99 AUDIO
    TITLE "0:"
    INDEX 01 02:02:66
  TRACK 100 AUDIO
    TITLE "17:cjc171_10930"
    INDEX 01 02:03:23
  TRACK 101 AUDIO
    TITLE "0:"
    INDEX 01 02:05:14
  TRACK 102 AUDIO
    TITLE "18:cjc171_10931"
    INDEX 01 02:05:69
  TRACK 103 AUDIO
    TITLE "0:"
    INDEX 01 02:07:62
  TRACK 104 AUDIO
    TITLE "16:cjc171_10932"
    INDEX 01 02:08:67
  TRACK 105 AUDIO
    TITLE "0:"
    INDEX 01 02:10:13
  TRACK 106 AUDIO
    TITLE "17:cjc171_10933"
    INDEX 01 02:10:43
  TRACK 107 AUDIO
    TITLE "0:"
    INDEX 01 02:13:06
  TRACK 108 AUDIO
    TITLE "18:cjc171_10934"
    INDEX 01 02:13:62
  TRACK 109 AUDIO
    TITLE "0:"
    INDEX 01 02:16:25
  TRACK 110 AUDIO
    TITLE "16:cjc171_10935"
    INDEX 01 02:17:27
  TRACK 111 AUDIO
    TITLE "0:"
    INDEX 01 02:18:40
  TRACK 112 AUDIO
    TITLE "17:cjc171_10936"
    INDEX 01 02:18:64
  TRACK 113 AUDIO
    TITLE "0:"
    INDEX 01 02:20:29
  TRACK 114 AUDIO
    TITLE "18:cjc171_10937"
    INDEX 01 02:21:07
  TRACK 115 AUDIO
    TITLE "0:"
    INDEX 01 02:22:46
  TRACK 116 AUDIO
    TITLE "16:cjc171_10938"
    INDEX 01 02:23:53
  TRACK 117 AUDIO
    TITLE "0:"
    INDEX 01 02:25:01
  TRACK 118 AUDIO
    TITLE "17:cjc171_10939"
    INDEX 01 02:25:22
  TRACK 119 AUDIO
    TITLE "0:"
    INDEX 01 02:27:15
  TRACK 120 AUDIO
    TITLE "18:cjc171_10940"
    INDEX 01 02:27:59
  TRACK 121 AUDIO
    TITLE "0:"
    INDEX 01 02:29:52
